<?xml version="1.0" standalone="no"?>
<!DOCTYPE svg PUBLIC "-//W3C//DTD SVG 20010904//EN"
 "http://www.w3.org/TR/2001/REC-SVG-20010904/DTD/svg10.dtd">
<svg version="1.0" xmlns="http://www.w3.org/2000/svg"
 width="280.000000pt" height="280.000000pt" viewBox="0 0 280.000000 280.000000"
 preserveAspectRatio="xMidYMid meet">
<metadata>
Created by potrace 1.14, written by Peter Selinger 2001-2017
</metadata>
<g transform="translate(0.000000,280.000000) scale(0.100000,-0.100000)"
fill="#000000" stroke="none">
<path d="M757 2793 c-3 -5 -6 -26 -8 -48 -1 -22 -5 -44 -8 -50 -3 -5 -6 -25
-8 -43 l-4 -34 38 23 c79 47 88 54 106 76 10 12 24 20 32 16 12 -4 15 3 15 31
l0 36 -79 0 c-44 0 -82 -3 -84 -7z"/>
<path d="M1180 2795 c0 -3 5 -12 12 -19 14 -14 48 -10 48 6 0 6 -9 8 -20 5
-11 -3 -20 -1 -20 4 0 5 -4 9 -10 9 -5 0 -10 -2 -10 -5z"/>
<path d="M2151 2768 c-10 -28 -9 -35 6 -46 24 -17 88 -12 88 8 0 8 8 24 18 34
27 31 21 36 -42 36 -58 0 -59 -1 -70 -32z"/>
<path d="M2565 2780 c-83 -8 -35 -20 105 -26 128 -6 130 -6 130 16 0 20 -3 21
-92 18 -51 -2 -115 -5 -143 -8z"/>
<path d="M2746 2625 c4 -8 10 -15 15 -15 5 0 9 7 9 15 0 8 -7 15 -15 15 -9 0
-12 -6 -9 -15z"/>
<path d="M2780 2610 c0 -16 5 -30 10 -30 6 0 10 14 10 30 0 17 -4 30 -10 30
-5 0 -10 -13 -10 -30z"/>
<path d="M2106 2588 c-19 -43 -53 -162 -61 -211 -7 -44 6 -67 40 -67 25 0 35
28 36 109 0 25 6 79 13 118 7 40 11 75 8 78 -12 12 -23 3 -36 -27z"/>
<path d="M1293 2513 c-30 -11 -5 -45 62 -84 17 -11 67 -28 110 -39 120 -31
158 -53 200 -116 33 -49 55 -68 55 -46 0 11 -41 66 -85 114 -39 41 -79 62
-102 54 -8 -3 -12 -2 -9 3 7 11 -39 31 -74 31 -15 0 -31 6 -33 13 -4 10 -6 10
-6 0 -1 -7 -9 -13 -20 -13 -14 0 -18 6 -15 26 2 19 -1 24 -12 20 -8 -3 -14 -1
-14 5 0 6 -7 9 -14 6 -10 -4 -13 -1 -10 7 6 15 -14 26 -33 19z"/>
<path d="M711 2448 c-33 -29 -59 -54 -57 -55 14 -15 126 74 126 99 0 14 -7 9
-69 -44z"/>
<path d="M1565 2480 c3 -5 11 -10 16 -10 6 0 7 5 4 10 -3 6 -11 10 -16 10 -6
0 -7 -4 -4 -10z"/>
<path d="M1664 2462 c4 -7 2 -12 -4 -12 -6 0 -8 -6 -4 -12 4 -7 -2 -4 -14 6
-12 11 -24 17 -27 14 -9 -9 42 -49 71 -54 30 -5 89 -55 105 -89 6 -12 -1 -8
-18 10 -15 17 -41 39 -58 49 l-30 17 28 -25 c28 -26 35 -46 15 -46 -6 0 7 -13
28 -28 27 -20 39 -37 40 -54 1 -15 14 -42 28 -61 14 -18 26 -37 26 -40 0 -4
-65 -7 -145 -7 -80 0 -145 4 -145 9 0 10 -41 27 -89 37 -56 11 -122 6 -140
-10 -15 -14 -20 -14 -38 -1 -14 10 -20 24 -18 40 1 14 -2 25 -7 25 -5 0 -6 6
-3 13 4 6 0 4 -8 -5 -8 -10 -20 -18 -26 -18 -8 0 -10 -8 -6 -21 6 -19 4 -21
-14 -16 -18 4 -20 1 -17 -24 l3 -29 -280 0 c-260 0 -282 1 -311 20 -18 10 -51
21 -74 22 -23 2 -41 8 -38 13 2 6 6 21 10 35 5 18 1 15 -13 -11 -23 -41 -59
-77 -48 -46 4 11 3 16 -4 12 -5 -4 -7 -15 -4 -26 6 -18 0 -19 -104 -19 l-111
0 0 -70 0 -70 35 0 c34 0 35 -1 35 -40 l0 -40 40 0 c39 0 40 -1 40 -35 0 -33
2 -35 35 -35 33 0 35 -2 35 -35 l0 -35 113 -2 c255 -5 237 -3 237 -27 0 -16
-6 -19 -35 -18 -19 1 -37 8 -40 15 -7 18 -25 15 -25 -5 0 -14 -2 -15 -9 -4 -7
11 -11 9 -20 -8 -7 -12 -17 -21 -24 -20 -42 5 -65 -3 -72 -23 -4 -13 -7 -27
-6 -31 1 -4 -4 -18 -11 -30 -15 -28 -22 -79 -8 -57 7 11 10 8 10 -15 0 -17 -7
-41 -16 -53 -9 -13 -13 -26 -10 -29 3 -4 6 -1 6 5 0 7 7 12 15 12 17 0 20 -16
5 -25 -6 -3 -10 -11 -10 -17 0 -7 4 -7 13 0 10 8 12 2 9 -29 -2 -21 0 -39 6
-39 5 0 12 -23 16 -51 7 -53 -5 -84 -30 -75 -8 3 -11 0 -7 -10 4 -11 9 -12 16
-5 18 18 24 13 25 -19 1 -30 -13 -41 -20 -18 -3 8 -6 7 -10 -3 -3 -8 1 -31 9
-52 11 -27 20 -36 32 -32 12 3 17 -1 17 -14 0 -12 -6 -17 -16 -14 -13 4 -13 3
0 -9 8 -7 28 -30 43 -51 16 -20 38 -48 51 -60 25 -26 56 -83 56 -105 0 -9 4
-29 10 -46 5 -17 15 -52 22 -78 6 -26 16 -44 21 -41 4 3 7 -1 6 -8 -4 -23 12
-69 22 -63 5 3 9 -2 9 -10 0 -9 9 -25 21 -37 12 -12 22 -28 24 -38 1 -9 8 -15
13 -14 6 2 9 -3 6 -11 -3 -8 -1 -17 5 -20 6 -4 8 -13 4 -21 -3 -8 0 -15 7 -15
21 0 40 -26 27 -39 -8 -8 -7 -11 4 -11 12 0 15 -10 15 -40 -1 -22 3 -40 7 -40
5 0 5 -4 2 -10 -3 -5 -15 -10 -26 -10 -11 0 -18 -4 -14 -9 13 -22 -14 -18 -31
4 -10 14 -24 25 -31 25 -7 0 -13 7 -13 15 0 16 -39 36 -52 28 -5 -2 -8 -14 -9
-26 -1 -20 -2 -20 -8 3 -6 23 -7 24 -15 5 -5 -13 -2 -23 8 -31 22 -16 20 -24
-6 -24 -17 0 -19 -3 -10 -12 9 -9 7 -14 -5 -23 -18 -14 95 -20 541 -31 l269
-7 29 -26 c20 -18 33 -43 42 -83 7 -32 9 -58 5 -58 -5 0 -9 -5 -9 -11 0 -5 4
-8 9 -5 5 3 11 -3 14 -14 5 -20 15 -20 571 -20 l566 0 -1 223 c0 231 -7 314
-24 287 -5 -8 -9 -30 -8 -50 0 -29 0 -30 -4 -7 -4 25 -8 28 -29 23 -24 -6 -25
-6 -9 18 10 14 22 23 31 19 9 -3 14 1 14 12 0 10 5 13 12 9 8 -5 9 -2 5 9 -3
10 -3 17 1 17 4 0 8 21 9 48 l2 47 -50 -78 c-44 -68 -53 -76 -66 -65 -14 11
-16 10 -10 -12 4 -17 0 -33 -14 -50 -15 -18 -18 -19 -11 -5 5 11 7 25 5 32 -2
6 3 26 12 43 16 31 12 58 -4 31 -9 -15 -21 57 -21 130 0 26 -4 51 -10 54 -5 3
-10 1 -10 -5 0 -6 -4 -8 -10 -5 -5 3 -10 0 -10 -7 0 -19 -37 -41 -43 -25 -3 7
-6 5 -6 -4 -1 -18 -64 -79 -81 -79 -6 0 -10 -8 -10 -17 0 -9 -3 -13 -7 -10 -3
4 -15 -1 -27 -10 -11 -10 10 17 47 60 72 86 174 232 199 287 42 90 60 140 85
234 22 83 27 123 27 226 0 109 -2 132 -23 176 -23 52 -61 96 -94 107 -15 6
-14 1 7 -36 28 -49 71 -175 63 -183 -10 -10 -26 5 -43 42 -9 19 -19 32 -22 30
-2 -3 5 -24 17 -47 17 -33 19 -44 10 -50 -7 -4 -16 -6 -20 -3 -4 2 -9 0 -11
-5 -1 -5 -12 3 -22 17 l-20 27 21 -18 c20 -17 21 -17 26 3 3 11 1 20 -4 20 -5
0 -9 7 -9 15 0 18 -42 87 -69 114 -10 10 -31 41 -46 70 -16 28 -32 51 -37 51
-5 0 -7 4 -4 9 8 13 -53 111 -87 140 -15 13 -26 29 -23 36 2 7 -4 25 -15 41
-10 16 -19 24 -19 19 0 -6 7 -22 16 -35 9 -14 0 -7 -20 15 -37 42 -48 67 -19
44 12 -10 11 -5 -4 17 -12 17 -30 37 -40 45 -11 8 -9 3 5 -12 35 -39 26 -44
-18 -9 -43 34 -53 32 -20 -4 40 -43 124 -152 158 -206 19 -30 40 -58 45 -62 6
-3 12 -15 13 -25 2 -12 -6 -8 -27 16 -16 19 -29 30 -29 25 -1 -5 -7 6 -15 24
-13 30 -35 37 -35 11 0 -6 4 -7 10 -4 5 3 7 0 4 -8 -3 -8 10 -27 30 -45 20
-17 36 -35 36 -39 0 -4 12 -21 28 -37 l27 -31 -31 28 c-32 29 -80 42 -90 25
-6 -9 -70 59 -68 72 0 6 -5 12 -41 53 -26 29 -32 43 -15 32 6 -3 10 -1 10 4 0
6 -5 11 -11 11 -6 0 -8 7 -5 16 3 8 2 13 -3 9 -5 -3 -12 1 -14 7 -3 7 -6 2 -7
-12 -1 -24 -2 -23 -20 10 -11 19 -20 28 -20 20 -1 -20 -29 30 -30 53 0 9 -5
17 -12 17 -6 0 -8 3 -5 6 9 9 -11 44 -25 44 -9 0 -9 -3 -1 -11 8 -8 8 -20 2
-36 -5 -14 -5 -22 0 -19 11 7 44 -47 61 -100 7 -21 16 -43 21 -48 5 -6 9 -15
9 -20 0 -6 -5 -4 -10 4 -20 31 -9 -9 15 -54 13 -25 22 -46 19 -46 -4 0 2 -12
11 -27 12 -17 14 -28 7 -31 -7 -2 -4 -20 10 -50 31 -72 38 -92 33 -92 -12 0
-67 129 -69 160 -1 22 -6 34 -14 33 -6 -2 -11 5 -9 15 3 22 -44 132 -56 132
-5 0 -16 8 -23 18 -11 14 -12 12 -2 -15 7 -19 15 -28 19 -21 4 6 9 2 14 -11 3
-11 4 -25 0 -30 -3 -5 -1 -12 5 -16 5 -3 10 -11 10 -17 0 -7 -4 -7 -13 1 -8 6
-17 8 -21 4 -4 -4 -2 5 3 20 6 16 7 26 2 22 -6 -3 -14 2 -19 11 -8 15 -10 15
-15 0 -5 -12 -3 -15 5 -10 8 5 9 2 5 -10 -5 -11 -3 -15 5 -10 8 5 9 1 4 -12
-10 -26 -10 -26 -2 -56 5 -16 12 -28 16 -28 5 0 16 -21 26 -47 9 -27 28 -58
40 -70 24 -24 40 -31 29 -13 -3 6 -2 10 3 10 11 0 37 -58 29 -66 -3 -3 -26 17
-52 45 -26 28 -51 49 -55 46 -4 -2 -19 23 -33 57 -15 34 -30 59 -33 56 -3 -4
-1 -16 6 -27 14 -27 -3 -27 -21 -1 -12 18 -14 8 -15 -87 0 -63 -5 -116 -12
-128 -10 -18 -11 -16 -12 19 0 51 -21 166 -31 166 -3 0 -12 15 -19 33 -15 36
-48 77 -64 77 -5 0 0 -9 12 -20 12 -12 22 -22 22 -25 0 -2 -26 10 -59 25 -34
17 -69 27 -82 24 -13 -2 -18 -2 -11 2 6 3 10 10 6 15 -3 5 1 9 8 9 7 1 1 8
-15 16 -15 8 -32 12 -37 9 -5 -3 -7 1 -4 9 4 11 18 14 52 12 26 -2 41 -1 35 1
-7 3 -13 11 -13 18 0 8 -8 20 -18 27 -29 21 -52 61 -52 90 0 25 3 28 35 28 33
0 35 2 35 35 0 30 3 35 24 35 26 0 43 -28 97 -165 34 -87 79 -169 79 -145 0 8
-11 39 -25 69 -38 81 -23 72 21 -13 21 -42 39 -74 41 -72 2 1 -13 41 -32 89
-19 48 -35 94 -35 102 0 8 -4 15 -10 15 -5 0 -10 7 -10 15 0 9 -9 33 -20 55
-11 22 -20 41 -20 43 0 2 22 4 49 6 42 2 52 -1 61 -19 6 -12 14 -19 17 -16 3
3 0 13 -7 22 -13 14 -4 15 96 14 60 -1 144 -1 187 -1 l77 1 0 35 0 35 -199 0
-199 0 -31 54 c-16 30 -36 58 -43 62 -7 5 -5 -5 6 -21 10 -15 27 -43 38 -62
l20 -33 -45 0 c-40 0 -46 3 -57 29 -6 16 -19 37 -28 47 -10 11 -40 52 -67 93
-54 79 -116 141 -141 141 -8 0 -13 4 -9 9 3 5 0 13 -6 17 -8 4 -9 3 -5 -4z
m-384 -302 c0 -5 -4 -10 -10 -10 -5 0 -10 5 -10 10 0 6 5 10 10 10 6 0 10 -4
10 -10z m-840 -135 c0 -33 2 -35 34 -35 32 0 35 3 38 33 3 29 6 32 41 35 36 3
37 3 37 -32 0 -34 2 -36 35 -36 30 0 35 -3 36 -25 1 -14 2 -31 3 -37 0 -7 18
-14 39 -16 35 -3 37 -5 37 -38 0 -33 -1 -34 -40 -34 -39 0 -40 1 -40 35 0 33
-2 35 -35 35 -33 0 -35 -2 -35 -35 0 -34 -1 -35 -40 -35 -39 0 -40 1 -40 35 0
33 -2 35 -35 35 -33 0 -35 2 -35 35 0 33 -2 35 -35 35 -34 0 -35 1 -35 40 0
39 1 40 35 40 33 0 35 -2 35 -35z m820 0 c0 -33 2 -35 35 -35 33 0 35 2 35 35
0 33 2 35 35 35 33 0 35 -2 35 -34 0 -33 2 -35 38 -38 35 -3 37 -5 40 -40 3
-36 5 -38 38 -38 32 0 34 -2 34 -35 0 -33 -2 -35 -34 -35 -32 0 -35 3 -38 33
-3 29 -6 32 -40 35 -37 3 -38 3 -38 -32 0 -34 -2 -36 -35 -36 -33 0 -35 2 -35
35 0 34 -1 35 -40 35 -39 0 -40 1 -40 35 0 33 -2 35 -35 35 -34 0 -35 1 -35
40 l0 40 40 0 c39 0 40 -1 40 -35z m-148 -72 c2 -28 8 -39 23 -42 23 -4 44
-29 45 -53 0 -12 8 -18 21 -18 23 0 59 -34 59 -55 0 -17 47 -21 218 -17 l142
4 0 34 c0 30 3 34 25 34 29 0 29 -1 11 -43 -19 -46 -48 -67 -103 -76 l-48 -8
57 -7 c31 -5 62 -5 69 0 21 13 101 15 137 3 31 -10 40 -32 14 -35 -23 -3 -24
-4 -12 -19 7 -8 8 -15 2 -15 -15 0 -33 26 -24 35 4 5 -1 5 -11 2 -10 -4 -23
-7 -29 -7 -6 0 -6 -6 2 -15 7 -8 16 -13 20 -10 3 2 17 -3 29 -12 16 -10 19
-18 11 -23 -7 -4 -2 -13 16 -25 41 -27 72 -67 66 -87 -2 -10 -8 -16 -12 -13
-15 9 -18 -9 -10 -55 5 -25 7 -60 3 -78 -4 -27 -9 -32 -25 -26 -14 4 -18 2
-14 -5 4 -6 2 -11 -3 -11 -6 0 -11 6 -11 13 0 8 -4 7 -10 -3 -5 -8 -10 -10
-10 -4 0 5 -16 10 -35 11 l-36 1 26 -25 c24 -25 32 -43 19 -43 -4 0 -13 8 -20
18 -13 16 -13 16 -14 0 0 -11 -5 -15 -15 -12 -8 4 -13 10 -10 14 2 4 -5 16
-17 26 -12 11 -18 13 -14 7 4 -8 1 -13 -9 -13 -10 0 -13 -5 -9 -12 5 -8 2 -9
-11 -4 -15 5 -16 4 -5 -9 9 -11 15 -13 20 -4 6 8 13 8 28 0 24 -13 67 -70 59
-78 -9 -8 -28 7 -22 17 6 9 -31 32 -72 44 -18 6 -22 4 -17 -8 3 -9 14 -16 23
-16 10 0 26 -7 37 -16 18 -14 18 -15 -3 -4 -27 13 -30 3 -5 -17 9 -8 2 -6 -16
4 -33 18 -71 63 -52 63 6 0 6 9 1 23 -4 12 -6 28 -4 35 3 6 -1 12 -9 12 -8 0
-6 5 5 11 14 8 16 14 7 25 -7 7 -12 29 -13 49 -1 27 -5 35 -19 35 -10 0 -18 7
-18 16 0 57 -69 104 -192 129 -40 9 -79 22 -88 30 -18 17 -50 20 -50 6 0 -5 6
-12 13 -14 9 -4 9 -6 -1 -6 -7 -1 -15 6 -18 14 -5 11 -10 12 -24 3 -23 -15
-37 -1 -73 70 -21 41 -23 52 -11 52 13 0 13 4 -1 30 -18 35 -19 44 -3 34 7 -4
8 -3 4 4 -4 6 -13 9 -20 6 -8 -3 -17 -1 -21 5 -3 6 -1 11 4 11 16 0 13 16 -5
35 -9 8 -13 22 -10 30 5 14 -18 21 -48 16 -5 -1 -6 7 -3 19 6 22 -18 29 -26 8
-3 -7 -6 -3 -6 10 -1 13 3 20 9 17 6 -3 10 -1 10 4 0 7 26 11 64 11 l65 0 3
-37z m868 -29 c0 -8 -4 -12 -10 -9 -5 3 -10 10 -10 16 0 5 5 9 10 9 6 0 10 -7
10 -16z m-1023 -18 c-19 -15 -24 -31 -4 -20 6 4 4 -1 -5 -12 -14 -16 -16 -31
-12 -71 4 -31 2 -53 -4 -57 -6 -4 -9 -13 -5 -21 7 -21 -17 -19 -33 3 -13 16
-13 16 -14 -1 0 -15 -7 -18 -37 -15 -31 2 -39 7 -41 27 -2 13 0 21 5 18 4 -3
6 15 4 39 l-3 44 36 0 c37 0 40 4 36 48 -1 19 3 22 39 22 25 0 41 5 41 12 0 6
3 8 7 4 5 -4 0 -13 -10 -20z m80 -78 c-3 -8 -6 -5 -6 6 -1 11 2 17 5 13 3 -3
4 -12 1 -19z m740 -94 c-3 -3 -12 -4 -19 -1 -8 3 -5 6 6 6 11 1 17 -2 13 -5z
m45 -26 c-9 -9 -15 -9 -24 0 -9 9 -7 12 12 12 19 0 21 -3 12 -12z m537 -34
c14 -25 34 -53 46 -62 29 -23 58 -69 47 -76 -10 -6 -100 112 -119 156 -19 45
0 32 26 -18z m-498 10 c12 -15 11 -16 -10 -9 -16 5 -21 4 -17 -4 4 -6 2 -11
-3 -11 -12 0 -15 23 -4 33 10 11 20 8 34 -9z m583 -25 c2 -14 55 -110 66 -119
3 -3 19 -23 35 -45 l29 -40 -33 30 c-18 17 -51 53 -72 82 -21 29 -50 63 -64
77 -30 30 -32 40 -5 33 11 -3 20 0 20 6 0 15 21 -6 24 -24z m-1317 -51 c-3 -8
-6 -5 -6 6 -1 11 2 17 5 13 3 -3 4 -12 1 -19z m708 2 c3 -5 2 -10 -4 -10 -5 0
-13 5 -16 10 -3 6 -2 10 4 10 5 0 13 -4 16 -10z m649 -225 c16 -25 17 -27 2
-16 -9 8 -24 27 -32 42 -16 33 -19 53 -2 24 6 -11 20 -33 32 -50z m107 48 c13
-16 12 -17 -3 -4 -10 7 -18 15 -18 17 0 8 8 3 21 -13z m-226 -43 c13 -24 13
-28 0 -26 -20 3 -26 11 -29 40 -4 31 9 25 29 -14z m305 -105 c0 -5 -5 -3 -10
5 -5 8 -10 20 -10 25 0 6 5 3 10 -5 5 -8 10 -19 10 -25z m-860 -6 c0 -6 -4 -7
-10 -4 -5 3 -10 11 -10 16 0 6 5 7 10 4 6 -3 10 -11 10 -16z m-116 -161 c-7
-11 -32 -10 -39 2 -3 6 4 9 19 8 13 -1 22 -6 20 -10z m-465 -68 c13 -7 17 -17
13 -37 l-5 -28 20 24 c14 17 26 22 38 18 15 -7 16 -10 3 -29 -17 -25 -21 -28
-104 -63 -62 -27 -118 -30 -120 -7 -1 6 -3 15 -4 20 -5 17 3 68 12 80 6 6 27
12 47 13 20 0 45 4 56 9 26 11 24 11 44 0z m-212 -66 c9 -25 -13 -40 -26 -16
-10 19 -6 32 11 32 5 0 11 -7 15 -16z m-16 -45 c11 -11 18 -23 15 -26 -7 -8
-56 25 -56 37 0 16 19 11 41 -11z m1717 -524 c-3 -3 -9 2 -12 12 -6 14 -5 15
5 6 7 -7 10 -15 7 -18z m-35 -23 c-18 -18 -27 -10 -18 17 5 16 9 18 19 9 11
-10 10 -15 -1 -26z"/>
<path d="M520 1945 c0 -33 2 -35 35 -35 33 0 35 2 35 35 0 33 -2 35 -35 35
-33 0 -35 -2 -35 -35z"/>
<path d="M1330 1945 c0 -33 2 -35 35 -35 33 0 35 2 35 35 0 33 -2 35 -35 35
-33 0 -35 -2 -35 -35z"/>
<path d="M1820 1525 c7 -8 17 -15 22 -15 6 0 5 7 -2 15 -7 8 -17 15 -22 15 -6
0 -5 -7 2 -15z"/>
<path d="M1560 1480 c0 -5 5 -10 11 -10 5 0 7 5 4 10 -3 6 -8 10 -11 10 -2 0
-4 -4 -4 -10z"/>
<path d="M1725 1340 c3 -5 8 -10 11 -10 2 0 4 5 4 10 0 6 -5 10 -11 10 -5 0
-7 -4 -4 -10z"/>
<path d="M830 1740 c-8 -5 -10 -10 -5 -10 6 0 17 5 25 10 8 5 11 10 5 10 -5 0
-17 -5 -25 -10z"/>
<path d="M2346 1387 c3 -10 9 -15 12 -12 3 3 0 11 -7 18 -10 9 -11 8 -5 -6z"/>
<path d="M573 2406 c-28 -34 -75 -110 -56 -91 14 15 79 98 87 113 14 23 -3 12
-31 -22z"/>
<path d="M614 2368 l-19 -23 23 19 c21 18 27 26 19 26 -2 0 -12 -10 -23 -22z"/>
<path d="M514 2271 c0 -11 4 -17 8 -15 4 3 8 12 8 20 0 8 -4 14 -8 14 -4 0 -8
-9 -8 -19z"/>
<path d="M1710 2201 c0 -11 39 -59 40 -49 0 14 -23 58 -32 58 -4 0 -8 -4 -8
-9z"/>
<path d="M80 2165 c9 -10 30 -15 69 -14 l56 1 -60 14 c-77 17 -80 17 -65 -1z"/>
<path d="M2440 2025 l0 -35 74 0 c65 0 74 2 71 18 -2 9 -4 25 -4 35 -1 14 -11
17 -71 17 l-70 0 0 -35z"/>
<path d="M2320 2042 c0 -5 12 -19 27 -33 l26 -24 -23 33 c-25 33 -30 38 -30
24z"/>
<path d="M2076 1994 c-3 -9 -4 -19 -1 -22 3 -3 5 1 5 9 0 11 2 11 10 -1 5 -8
10 -10 10 -5 0 6 -4 16 -9 23 -6 11 -10 10 -15 -4z"/>
<path d="M2000 1971 c0 -6 4 -13 10 -16 6 -3 7 1 4 9 -7 18 -14 21 -14 7z"/>
<path d="M2281 1950 c7 -14 14 -29 14 -35 1 -5 6 -9 13 -7 10 2 16 -9 14 -29
0 -3 10 -18 23 -35 22 -27 23 -27 18 -6 -3 13 -12 26 -19 29 -8 3 -12 9 -9 13
3 4 -9 25 -26 46 -40 50 -45 54 -28 24z"/>
<path d="M2340 1805 c11 -20 20 -44 20 -54 0 -25 25 -46 36 -30 5 8 3 9 -6 4
-10 -6 -12 -4 -7 7 3 9 -7 36 -23 62 -35 54 -48 62 -20 11z"/>
<path d="M2327 1770 c7 -25 23 -37 23 -17 0 8 -6 20 -14 26 -12 10 -13 8 -9
-9z"/>
<path d="M361 1425 c-1 -15 -3 -17 -10 -6 -5 7 -11 9 -14 4 -4 -6 -30 -6 -69
-1 -35 5 -109 6 -165 3 l-103 -7 0 -57 0 -56 137 3 c207 5 213 5 229 27 14 19
14 19 28 -1 13 -17 14 -15 6 19 -10 47 -19 58 -22 26 0 -13 -4 -4 -8 21 -4 25
-8 36 -9 25z"/>
<path d="M657 803 c-4 -3 -7 -17 -7 -30 0 -12 -5 -23 -11 -23 -5 0 -9 -8 -8
-17 1 -10 0 -25 -4 -33 -16 -42 -67 -219 -67 -231 0 -8 -4 -19 -9 -24 -5 -6
-17 -48 -25 -95 -9 -46 -21 -87 -27 -91 -6 -3 32 -10 86 -14 53 -4 98 -5 100
-3 3 3 6 251 5 413 0 28 2 74 6 103 5 47 3 52 -14 52 -10 0 -22 -3 -25 -7z
m33 -24 c0 -18 -2 -19 -15 -9 -8 7 -15 16 -15 21 0 5 7 9 15 9 9 0 15 -9 15
-21z"/>
<path d="M2730 595 c-7 -9 -8 -15 -2 -15 5 0 12 7 16 15 3 8 4 15 2 15 -2 0
-9 -7 -16 -15z"/>
<path d="M2694 549 c-3 -6 -2 -15 4 -21 6 -6 11 -2 15 11 5 22 -7 29 -19 10z"/>
<path d="M28 140 c4 -64 25 -106 45 -93 5 3 7 1 4 -5 -4 -5 -4 -17 -1 -26 6
-14 80 -16 759 -16 l754 0 -6 38 c-7 44 -8 46 -22 37 -6 -3 -11 -18 -12 -33
l0 -27 -10 24 c-5 13 -8 29 -6 35 5 15 -18 36 -41 36 -10 0 -21 3 -25 6 -3 3
-43 7 -90 9 -46 2 -88 5 -93 6 -5 1 -27 0 -49 -1 -24 -1 11 -9 90 -20 72 -9
136 -15 144 -12 10 4 12 1 6 -8 -6 -10 -29 -11 -99 -6 -50 4 -93 11 -96 17 -4
5 -26 9 -51 8 -78 -3 -343 13 -366 22 -48 18 -22 29 70 31 l92 1 -105 7 c-211
15 -714 22 -740 12 l-25 -11 25 -1 c18 0 9 -7 -35 -25 -42 -17 -61 -21 -66
-13 -10 16 0 38 17 38 8 0 14 4 14 9 0 6 17 11 38 13 21 2 3 6 -44 8 l-81 5 5
-65z m292 36 c0 -2 -18 -6 -40 -8 -22 -2 -40 0 -40 4 0 5 18 8 40 8 22 0 40
-2 40 -4z m113 -3 c-12 -2 -27 -11 -33 -19 -7 -8 -18 -14 -24 -14 -6 0 -2 6 9
12 19 12 18 13 -10 19 -23 5 -16 7 25 6 30 0 45 -2 33 -4z m-370 -23 c-3 -11
-7 -20 -9 -20 -2 0 -4 9 -4 20 0 11 4 20 9 20 5 0 7 -9 4 -20z m754 14 c-3 -3
-12 -4 -19 -1 -8 3 -5 6 6 6 11 1 17 -2 13 -5z m-467 -18 c0 -2 -7 -7 -16 -10
-8 -3 -12 -2 -9 4 6 10 25 14 25 6z m17 -22 c-3 -3 -12 -4 -19 -1 -8 3 -5 6 6
6 11 1 17 -2 13 -5z m-297 -13 c0 -5 -7 -11 -15 -15 -15 -5 -20 5 -8 17 9 10
23 9 23 -2z m810 -11 c0 -5 -2 -10 -4 -10 -3 0 -8 5 -11 10 -3 6 -1 10 4 10 6
0 11 -4 11 -10z m0 -30 c0 -5 -2 -10 -4 -10 -3 0 -8 5 -11 10 -3 6 -1 10 4 10
6 0 11 -4 11 -10z m273 -11 l-21 -22 -23 22 -23 21 44 0 44 0 -21 -21z"/>
<path d="M2 160 c0 -14 2 -19 5 -12 2 6 2 18 0 25 -3 6 -5 1 -5 -13z"/>
<path d="M1128 163 c12 -2 30 -2 40 0 9 3 -1 5 -23 4 -22 0 -30 -2 -17 -4z"/>
<path d="M1218 153 c12 -2 32 -2 45 0 12 2 2 4 -23 4 -25 0 -35 -2 -22 -4z"/>
<path d="M1378 153 c12 -2 32 -2 45 0 12 2 2 4 -23 4 -25 0 -35 -2 -22 -4z"/>
<path d="M1530 121 c0 -6 4 -13 10 -16 6 -3 7 1 4 9 -7 18 -14 21 -14 7z"/>
</g>
</svg>
